<svg width="40" height="40" viewBox="0 0 40 40" fill="none" xmlns="http://www.w3.org/2000/svg">
<g clip-path="url(#clip0_82128_5)">
<path d="M9.33884 14.7235L4.07227 19.9901L9.33884 25.2566L14.6054 19.9901L9.33884 14.7235Z" fill="#D7B399"/>
<path d="M19.9944 4.08541L14.7278 9.35199L19.9944 14.6186L25.2609 9.35199L19.9944 4.08541Z" fill="#D7B399"/>
<path d="M19.9914 25.3938L14.7249 30.6604L19.9914 35.927L25.258 30.6604L19.9914 25.3938Z" fill="#D7B399"/>
<path d="M30.6469 14.7266L25.3804 19.9932L30.6469 25.2597L35.9135 19.9932L30.6469 14.7266Z" fill="#D7B399"/>
<path d="M28.6103 12.6866L23.3438 17.9532L25.3829 19.9923L30.6495 14.7258L28.6103 12.6866Z" fill="#D7B399"/>
<path d="M17.9546 23.3532L12.688 28.6198L14.7271 30.659L19.9937 25.3924L17.9546 23.3532Z" fill="#D7B399"/>
<path d="M25.2588 9.35299L19.9922 14.6196L22.0313 16.6587L27.2979 11.3921L25.2588 9.35299Z" fill="#D7B399"/>
<path d="M14.6176 20.0053L9.35107 25.2719L11.3902 27.311L16.6568 22.0444L14.6176 20.0053Z" fill="#D7B399"/>
<path d="M11.3787 12.6864L9.3396 14.7256L14.6062 19.9922L16.6453 17.953L11.3787 12.6864Z" fill="#D7B399"/>
<path d="M14.7271 9.34953L12.688 11.3887L17.9546 16.6552L19.9937 14.6161L14.7271 9.34953Z" fill="#D7B399"/>
<path d="M25.3797 19.9905L23.3406 22.0296L28.6071 27.2962L30.6463 25.257L25.3797 19.9905Z" fill="#D7B399"/>
<path d="M22.046 23.342L20.0068 25.3812L25.2734 30.6477L27.3126 28.6086L22.046 23.342Z" fill="#D7B399"/>
<path d="M27.3028 32.6971L25.2696 30.6639L19.9999 35.9336L14.7302 30.6639L12.697 32.6971L19.9999 40L27.3028 32.6971Z" fill="#D7B399"/>
<path d="M9.3361 14.7303L7.3029 12.6971L0 20L7.3029 27.3029L9.3361 25.2697L4.06639 20L9.3361 14.7303Z" fill="#D7B399"/>
<path d="M32.697 12.6971L30.6638 14.7303L35.9335 20L30.6638 25.2697L32.697 27.3029L39.9999 20L32.697 12.6971Z" fill="#D7B399"/>
<path d="M25.2696 9.3361L27.3028 7.3029L19.9999 0L12.697 7.3029L14.7302 9.3361L19.9999 4.06639L25.2696 9.3361Z" fill="#D7B399"/>
</g>
<defs>
<clipPath id="clip0_82128_5">
<rect width="40" height="40" fill="white"/>
</clipPath>
</defs>
</svg>
